<?xml version="1.0" standalone="no"?>
<!DOCTYPE svg PUBLIC "-//W3C//DTD SVG 20010904//EN"
 "http://www.w3.org/TR/2001/REC-SVG-20010904/DTD/svg10.dtd">
<svg version="1.0" xmlns="http://www.w3.org/2000/svg"
 width="1290.000000pt" height="716.000000pt" viewBox="0 0 1290.000000 716.000000"
 preserveAspectRatio="xMidYMid meet">

<g transform="translate(0.000000,716.000000) scale(0.100000,-0.100000)"
fill="#000000" stroke="none">
<path d="M3150 5144 c-227 -30 -450 -106 -615 -208 -155 -97 -286 -207 -380
-321 -27 -33 -52 -62 -55 -65 -33 -30 -118 -167 -174 -278 -52 -103 -71 -159
-105 -312 -158 -714 182 -1441 826 -1764 116 -58 170 -79 284 -110 331 -90
650 -80 948 30 229 85 401 195 571 364 123 123 207 238 283 388 96 189 133
308 168 546 91 610 -231 1236 -793 1545 -290 159 -640 227 -958 185z m-93
-155 l28 -11 -30 -14 c-16 -7 -38 -13 -49 -14 -10 0 -64 -22 -120 -50 -55 -27
-120 -52 -144 -55 -41 -6 -42 -5 -30 14 10 17 19 20 45 15 26 -5 34 -2 44 18
7 12 13 28 14 33 0 14 70 46 130 61 65 16 78 16 112 3z m257 -31 c-1 -12 6
-18 20 -19 11 0 30 -4 41 -9 19 -7 18 -8 -7 -18 -32 -13 -58 -59 -58 -102 0
-23 -6 -33 -24 -41 -14 -7 -22 -17 -20 -24 3 -7 0 -16 -5 -20 -6 -3 -9 -11 -6
-16 8 -12 -53 -48 -95 -55 -19 -4 -44 -14 -55 -24 -11 -10 -36 -26 -55 -35
-19 -10 -50 -35 -68 -56 -34 -40 -58 -47 -93 -29 -39 21 -14 146 34 171 16 9
17 13 6 20 -11 7 -11 13 4 38 10 16 18 47 20 68 2 33 -1 38 -20 41 -83 12 96
112 201 112 23 0 48 5 56 10 8 6 40 9 70 8 45 -3 55 -6 54 -20z m-550 -22
c-10 -8 -21 -12 -23 -10 -3 2 4 11 15 18 10 8 21 12 23 10 3 -2 -4 -11 -15
-18z m-66 -28 c-3 -7 -18 -14 -34 -16 -28 -2 -28 -2 -10 13 24 18 49 20 44 3z
m978 -23 c17 -13 17 -14 2 -15 -11 0 -18 -8 -18 -20 0 -24 -17 -26 -42 -3 -24
21 -23 32 2 26 14 -4 20 0 20 11 0 20 10 20 36 1z m-1106 -20 l-23 -25 21 0
c34 0 26 -15 -25 -49 -48 -32 -60 -36 -80 -23 -16 10 -8 21 56 76 59 49 90 62
51 21z m-82 -22 c-59 -65 -73 -103 -37 -103 12 0 28 -8 35 -17 12 -16 18 -13
76 43 62 61 108 93 108 76 0 -4 -14 -18 -30 -31 -26 -19 -80 -90 -80 -106 0
-3 6 -5 14 -5 7 0 35 29 62 65 27 35 55 65 63 65 11 0 11 -3 1 -15 -10 -12
-10 -15 4 -15 9 0 16 5 16 12 0 6 8 4 20 -7 10 -9 19 -29 19 -44 0 -14 1 -53
3 -86 3 -57 2 -60 -20 -58 -17 2 -26 -6 -39 -32 -9 -19 -20 -35 -23 -35 -3 0
-19 14 -36 31 -28 30 -28 32 -10 43 10 6 30 21 45 32 21 18 23 24 13 37 -7 8
-10 22 -6 30 18 49 -33 38 -63 -13 -10 -17 -32 -35 -50 -41 -30 -10 -47 -39
-23 -39 6 0 10 -7 10 -16 0 -12 -6 -15 -22 -10 -13 3 -29 6 -37 6 -11 0 -11 3
-1 15 17 20 8 19 -45 -6 -48 -23 -115 -92 -115 -118 0 -9 12 -34 26 -55 20
-29 25 -46 21 -72 -8 -48 14 -44 42 7 13 22 30 43 37 46 8 3 24 24 36 47 11
22 32 56 45 74 l25 34 19 -32 c12 -20 17 -40 13 -55 -5 -21 -2 -25 14 -25 12
0 24 5 27 10 12 19 25 10 19 -14 -4 -16 2 -39 19 -68 22 -36 24 -50 18 -85 -6
-30 -4 -45 5 -55 8 -7 11 -23 8 -36 -6 -22 -24 -31 -24 -12 0 6 -11 10 -25 10
-30 0 -31 4 -6 44 l20 32 -72 -4 c-61 -3 -76 -8 -97 -29 -23 -23 -23 -24 -3
-14 34 17 56 14 48 -6 -12 -32 -10 -36 15 -43 24 -7 24 -7 -14 -23 -44 -19
-60 -21 -51 -7 3 6 -3 10 -14 10 -12 0 -38 -17 -59 -37 -20 -21 -51 -47 -67
-57 -17 -11 -37 -29 -45 -40 -8 -12 -40 -49 -72 -83 -47 -51 -58 -69 -58 -97
0 -19 -3 -41 -6 -50 -10 -26 -24 -7 -24 31 0 41 -23 73 -54 73 -29 0 -52 15
-37 24 17 11 14 131 -3 145 -12 10 -18 7 -30 -18 -19 -35 -21 -111 -4 -111 6
0 1 -8 -10 -19 -12 -10 -19 -21 -15 -25 4 -3 -1 -12 -10 -19 -21 -15 -42 -124
-33 -171 4 -19 13 -40 22 -47 12 -10 20 -7 44 16 28 27 54 29 32 3 -9 -12 -16
-54 -13 -86 1 -7 12 -18 26 -24 21 -9 25 -18 25 -55 0 -30 6 -49 21 -64 11
-11 18 -24 14 -27 -6 -7 -35 25 -56 62 -8 13 -8 16 0 12 18 -12 3 55 -16 70
-25 18 -34 17 -26 -3 3 -10 -24 13 -60 50 -80 82 -81 87 -81 302 -1 141 2 167
22 218 71 185 180 346 346 513 107 107 222 203 245 204 3 0 -7 -12 -21 -27z
m1828 -79 c197 -152 362 -383 454 -638 27 -72 53 -161 60 -196 6 -36 14 -74
17 -85 5 -17 4 -18 -10 -6 -9 7 -15 16 -13 20 2 3 -9 7 -26 7 -20 1 -37 11
-52 29 -20 25 -23 26 -30 10 -10 -27 34 -110 59 -110 33 0 47 -87 22 -135 -64
-119 -55 -118 -85 -10 -17 62 -19 115 -3 106 4 -3 13 -1 21 5 13 7 12 9 -2 9
-10 0 -18 7 -18 15 0 19 -30 32 -39 17 -4 -6 -24 48 -44 121 -21 73 -44 144
-52 160 -13 26 -12 27 10 27 34 0 39 27 10 52 -14 12 -25 32 -25 45 0 24 -18
31 -36 13 -7 -7 -19 7 -38 42 -65 122 -109 190 -181 281 -41 54 -75 100 -75
103 0 3 12 -4 26 -15 27 -21 54 -28 54 -13 0 4 -9 22 -20 40 -11 18 -20 41
-20 52 0 11 -2 20 -4 20 -2 0 -12 3 -22 7 -13 5 -16 3 -11 -10 9 -23 -2 -21
-30 5 -27 25 -30 40 -7 31 13 -5 15 -2 9 16 -6 20 -5 20 19 -4 24 -24 61 -35
54 -16 -1 5 -25 25 -52 43 -27 19 -52 40 -54 47 -6 17 32 -7 134 -85z m-270
-50 c4 -16 3 -25 -2 -21 -13 13 -42 95 -35 102 6 7 26 -35 37 -81z m194 -29
c7 -8 8 -15 2 -15 -5 0 -15 7 -22 15 -7 8 -8 15 -2 15 5 0 15 -7 22 -15z
m-340 -47 c69 -32 97 -65 45 -52 -14 3 -25 2 -25 -3 0 -11 38 -53 48 -53 4 0
18 18 32 40 33 54 60 54 60 0 0 -89 -85 -264 -180 -373 -52 -58 -76 -73 -95
-57 -19 16 -34 5 -28 -20 6 -24 -12 -27 -25 -3 -8 14 -14 15 -40 4 -17 -7 -36
-10 -41 -6 -6 3 -11 2 -11 -4 0 -6 -13 -24 -30 -41 -16 -17 -30 -36 -30 -42 0
-7 -10 -22 -22 -35 -24 -26 -98 -33 -116 -10 -5 6 -13 38 -17 69 l-7 57 62 3
c80 4 96 22 61 68 -12 18 -21 32 -19 33 12 7 46 28 110 72 65 45 78 50 118 47
63 -5 100 11 100 43 0 16 6 25 16 25 10 0 13 6 10 18 -5 14 -1 18 16 18 14 -1
23 5 23 14 0 10 -13 16 -42 18 -45 3 -66 30 -43 57 9 10 9 19 0 35 -11 21 -12
21 -32 3 -11 -10 -26 -30 -34 -44 -12 -23 -11 -29 1 -39 18 -15 19 -50 3 -85
-15 -33 -31 -32 -45 5 -12 32 -44 52 -51 32 -7 -22 -29 -12 -45 20 -15 31 -15
32 23 77 21 25 41 56 44 67 4 12 18 34 33 48 36 36 86 34 173 -6z m410 -196
c91 -133 163 -271 196 -372 9 -30 20 -59 24 -65 11 -14 50 -174 50 -203 0 -22
-1 -22 -30 9 -28 32 -29 34 -14 57 9 14 11 21 4 17 -8 -5 -10 2 -5 27 4 22 1
47 -8 69 l-15 34 5 -61 c4 -44 2 -63 -7 -69 -10 -6 -11 3 -7 41 l5 49 -11 -47
c-8 -36 -15 -48 -29 -48 -14 0 -18 -8 -18 -40 0 -29 4 -40 15 -40 8 0 15 -4
15 -10 0 -5 -6 -10 -14 -10 -8 0 -17 -7 -20 -16 -10 -26 -7 -124 4 -124 6 0
10 -18 10 -39 0 -22 5 -43 10 -46 6 -3 10 -12 9 -18 0 -9 -2 -9 -6 1 -8 21
-24 13 -18 -10 3 -14 -3 -35 -15 -53 -11 -16 -20 -25 -20 -18 0 17 -31 9 -42
-10 -7 -13 -5 -15 8 -10 15 6 15 4 -2 -13 -10 -11 -22 -16 -25 -11 -4 5 -12 6
-18 2 -9 -5 -9 -11 1 -23 11 -13 10 -15 -5 -9 -13 5 -20 0 -26 -16 -5 -12 -19
-31 -32 -43 -32 -28 -225 -164 -233 -164 -3 0 5 22 18 48 57 112 141 397 166
562 14 94 14 370 0 384 -7 7 -10 4 -10 -10 -1 -55 -23 -220 -40 -304 -44 -206
-112 -389 -202 -547 -27 -48 -53 -92 -58 -96 -4 -5 -10 27 -14 70 -4 43 -21
139 -38 213 -19 86 -32 176 -35 248 -3 62 -8 111 -10 108 -8 -8 -33 -112 -43
-176 -8 -54 -5 -97 15 -235 14 -94 25 -195 25 -225 0 -109 -47 -240 -115 -321
l-22 -27 0 30 c0 19 3 24 9 16 6 -10 10 -10 18 2 5 8 9 22 9 30 -1 10 -3 9 -6
-3 -3 -11 -11 -16 -19 -13 -15 6 -44 -7 -76 -33 -10 -8 -18 -10 -19 -5 0 5 -4
0 -9 -11 -7 -17 -9 -16 -10 10 -2 30 -2 30 -10 5 -7 -21 -8 -22 -10 -5 -4 37
-18 -25 -19 -82 -1 -29 -4 -53 -9 -53 -4 0 -6 33 -4 73 3 57 -4 104 -31 222
-49 206 -59 267 -60 363 0 46 -4 79 -8 75 -16 -16 -41 -130 -46 -213 -3 -51 1
-137 11 -215 9 -72 15 -158 15 -190 l-1 -60 -10 50 c-6 28 -10 61 -10 74 0 18
-2 20 -9 10 -5 -8 -9 -23 -9 -34 0 -11 -3 -16 -8 -9 -4 5 -35 11 -69 11 -34 1
-71 6 -82 12 -11 6 -29 11 -40 11 -12 0 -21 5 -21 10 0 6 -7 10 -16 10 -8 0
-23 8 -32 17 -16 16 -17 15 -23 -18 -4 -22 -7 -3 -8 53 -4 259 136 531 382
746 34 30 139 111 232 181 343 257 453 413 457 647 l2 96 38 -43 c21 -24 79
-104 128 -177z m-975 137 c0 -19 -47 -33 -79 -25 -17 4 -26 13 -26 26 0 17 6
18 53 15 34 -2 52 -8 52 -16z m-149 -54 c-3 -10 22 -16 97 -26 115 -14 104
-23 -20 -17 -69 4 -84 2 -87 -11 -6 -21 -42 -251 -65 -416 -17 -121 -19 -126
-20 -63 -1 70 7 138 40 357 23 150 23 150 -46 152 -22 1 -53 5 -70 10 -20 5
-1 7 59 5 78 -2 89 0 94 16 2 10 9 15 14 12 5 -3 7 -12 4 -19z m322 -131 c2
-11 16 -35 33 -54 40 -47 35 -64 -21 -68 l-44 -3 19 21 c17 18 17 24 5 43 -7
12 -18 29 -23 38 -12 20 -2 52 16 47 6 -3 13 -13 15 -24z m202 -24 c0 -5 -7
-10 -15 -10 -8 0 -15 5 -15 10 0 6 7 10 15 10 8 0 15 -4 15 -10z m-251 -33 c8
-11 6 -18 -8 -31 -22 -20 -41 -14 -41 13 0 32 28 42 49 18z m71 -404 c-1 -13
-93 -82 -101 -77 -10 6 72 83 89 84 6 0 12 -3 12 -7z m-443 -85 c-2 -13 -4 -3
-4 22 0 25 2 35 4 23 2 -13 2 -33 0 -45z m1413 3 c0 -6 -4 -13 -10 -16 -5 -3
-10 1 -10 9 0 9 5 16 10 16 6 0 10 -4 10 -9z m190 -106 c0 -5 -5 -3 -10 5 -5
8 -10 20 -10 25 0 6 5 3 10 -5 5 -8 10 -19 10 -25z m-2494 -41 c49 -38 35 -42
-17 -5 -23 17 -37 31 -30 31 7 0 28 -12 47 -26z m2356 -106 c2 -25 0 -44 -3
-42 -9 5 -19 -21 -19 -47 0 -10 -4 -19 -9 -19 -5 0 -12 -12 -15 -26 -12 -48
-78 -138 -154 -211 -41 -40 -70 -73 -65 -73 5 0 14 5 21 12 6 6 14 9 17 7 2
-3 -10 -13 -27 -23 -17 -11 -28 -14 -24 -7 12 19 -3 13 -65 -29 -33 -22 -62
-40 -64 -40 -2 0 -26 -14 -54 -31 -50 -32 -66 -47 -35 -35 9 3 12 2 9 -5 -4
-5 -15 -7 -25 -4 -12 4 -22 -1 -29 -12 -6 -10 -11 -14 -11 -9 0 5 -13 -10 -30
-32 -16 -23 -37 -49 -45 -59 -8 -10 -25 -32 -37 -50 -68 -95 -175 -222 -187
-223 -12 0 28 56 82 115 19 20 28 32 140 184 58 80 71 91 205 176 165 105 254
180 310 264 45 68 101 214 103 269 2 42 7 20 11 -50z m-50 54 c3 -11 0 -19 -7
-19 -7 0 -10 8 -7 19 2 10 6 18 7 18 1 0 5 -8 7 -18z m-2192 -17 l35 -13 -31
-1 c-16 -1 -39 6 -50 14 -25 19 -3 19 46 0z m2177 -47 c-3 -8 -6 -5 -6 6 -1
11 2 17 5 13 3 -3 4 -12 1 -19z m-2414 -45 c-3 -7 -6 -13 -8 -13 -2 0 -5 6 -8
13 -3 8 1 14 8 14 7 0 11 -6 8 -14z m242 -63 c3 -6 27 -15 52 -22 29 -7 64
-27 95 -55 27 -24 62 -46 78 -50 37 -7 88 -57 92 -89 2 -20 15 -30 63 -50 33
-14 81 -32 106 -40 59 -18 99 -55 99 -91 0 -15 -11 -46 -25 -68 -13 -22 -25
-56 -25 -75 -2 -37 -27 -116 -30 -90 -1 9 -5 6 -10 -7 -5 -13 -15 -23 -22 -22
-9 0 -10 2 -1 5 22 9 3 33 -23 28 -13 -2 -24 0 -24 6 0 5 -3 9 -7 8 -11 -3
-116 33 -128 43 -5 5 -17 9 -27 9 -10 0 -18 6 -18 13 0 8 -18 19 -40 26 -23 7
-40 18 -40 26 0 9 -10 15 -25 15 -14 0 -25 5 -25 10 0 6 -11 16 -25 22 -13 6
-27 19 -30 30 -4 10 -10 18 -14 18 -5 0 -25 16 -46 35 -26 23 -42 49 -50 82
-9 34 -17 48 -29 47 -18 -2 -22 11 -6 21 6 3 10 14 9 23 0 11 -3 12 -6 5 -8
-21 -21 -15 -21 10 0 12 -4 46 -9 75 -6 29 -6 52 -1 52 5 0 13 11 20 24 7 17
21 26 42 29 17 2 34 5 38 5 4 1 10 -3 13 -8z m2252 -332 c-3 -8 -6 -5 -6 6 -1
11 2 17 5 13 3 -3 4 -12 1 -19z m-10 -40 c-3 -8 -6 -5 -6 6 -1 11 2 17 5 13 3
-3 4 -12 1 -19z m-10 -40 c-3 -7 -16 -38 -28 -68 -75 -180 -261 -406 -422
-513 -182 -121 -342 -174 -552 -182 -122 -5 -139 -2 -51 10 35 5 45 9 35 16
-10 6 -6 9 16 9 23 0 27 3 15 10 -13 8 -12 10 3 10 9 0 17 5 17 11 0 6 6 9 14
6 23 -9 107 55 130 98 12 22 25 43 30 46 19 15 -13 16 -63 3 -105 -27 -61 -6
95 46 231 77 361 149 492 272 34 31 48 39 67 34 20 -5 23 -3 18 10 -5 14 -1
16 25 12 21 -3 33 0 37 9 3 11 -1 13 -16 8 -15 -5 -19 -4 -15 4 4 6 18 11 32
11 15 0 24 6 24 15 0 8 7 15 15 15 8 0 15 6 15 13 0 8 9 22 19 31 11 10 23 31
26 47 4 16 11 29 17 29 6 0 8 -6 5 -12z m166 -23 c-3 -9 -8 -14 -10 -11 -3 3
-2 9 2 15 9 16 15 13 8 -4z m-2322 -205 c-4 -11 -7 -8 -12 10 -12 42 -9 56 4
30 8 -14 11 -32 8 -40z m1874 30 c-3 -5 -12 -10 -18 -10 -7 0 -6 4 3 10 19 12
23 12 15 0z m-605 -38 c0 -7 -86 -92 -93 -92 -2 0 -4 10 -4 22 -1 13 1 18 5
11 5 -8 13 -6 29 7 12 9 20 20 18 24 -3 3 -2 4 2 1 9 -7 34 16 27 26 -3 5 0 9
5 9 6 0 11 -4 11 -8z m540 -7 c0 -7 -173 -85 -178 -81 -3 3 4 9 14 13 10 3 21
9 24 13 3 3 30 16 60 27 30 12 54 26 53 32 -2 5 4 8 12 5 8 -4 15 -7 15 -9z
m-1787 -25 c-7 -28 -13 -25 -13 6 0 14 4 23 9 20 5 -3 7 -15 4 -26z m1594 -66
c-3 -3 -12 -4 -19 -1 -8 3 -5 6 6 6 11 1 17 -2 13 -5z m-480 -34 c-11 -18 -33
-29 -24 -12 2 4 7 15 10 25 4 10 11 16 17 12 6 -4 5 -13 -3 -25z m443 26 c0
-2 -7 -6 -15 -10 -8 -3 -15 -1 -15 4 0 6 7 10 15 10 8 0 15 -2 15 -4z m-1533
-48 c-3 -8 -6 -5 -6 6 -1 11 2 17 5 13 3 -3 4 -12 1 -19z m32 -26 c1 3 24 -2
51 -13 47 -18 50 -18 51 -1 1 16 2 16 6 0 2 -10 8 -18 13 -18 5 0 11 8 13 18
4 14 5 13 6 -3 0 -12 -5 -27 -11 -35 -11 -12 -10 -12 4 -1 11 8 23 9 33 4 13
-8 12 -11 -9 -22 -14 -8 -30 -26 -36 -41 -10 -23 -8 -35 10 -71 12 -24 36 -59
53 -76 17 -18 26 -33 21 -33 -17 0 -98 56 -131 91 -48 51 -94 145 -86 176 4
18 2 24 -6 19 -13 -8 -14 -5 -4 20 6 16 7 16 14 -2 4 -10 8 -16 8 -12z m1061
-185 c0 -2 -13 -13 -30 -25 -16 -13 -30 -18 -30 -13 0 6 12 17 28 25 29 17 32
18 32 13z m-71 -50 c-2 -1 -15 -11 -29 -22 l-25 -20 19 23 c11 12 24 22 29 22
6 0 8 -1 6 -3z m-440 -54 c-13 -15 -31 -33 -39 -40 -25 -21 0 -14 33 9 l32 22
-19 -22 c-11 -12 -14 -22 -8 -22 6 0 14 5 17 10 4 6 15 8 26 5 14 -5 17 -3 13
9 -7 18 7 21 23 5 6 -6 17 -8 23 -4 9 6 9 10 -1 16 -8 5 -9 9 -4 9 6 0 16 -4
23 -9 10 -6 5 -13 -20 -28 -109 -63 -199 -88 -323 -87 -101 0 -178 20 -240 60
-22 14 -31 22 -20 19 11 -4 45 -13 75 -20 176 -41 290 -21 395 69 39 34 45 33
14 -1z"/>
<path d="M2221 4286 c-14 -17 -7 -36 15 -36 16 0 19 -16 4 -25 -13 -8 -43 -66
-37 -71 3 -3 18 13 34 36 26 34 32 38 43 26 6 -9 9 -20 5 -26 -3 -5 1 -10 10
-10 23 0 30 28 12 48 -8 9 -17 28 -19 42 -4 30 -47 40 -67 16z"/>
<path d="M2093 4243 c-7 -3 -13 -12 -13 -21 0 -15 2 -15 17 1 18 18 16 27 -4
20z"/>
<path d="M2330 4180 c-8 -5 -27 -10 -41 -10 -25 0 -58 -25 -47 -36 8 -7 118
36 118 47 0 12 -11 11 -30 -1z"/>
<path d="M2026 3675 c-3 -9 -6 -22 -5 -28 0 -7 5 -1 10 12 5 13 8 26 5 28 -2
2 -6 -3 -10 -12z"/>
<path d="M4623 4263 c-17 -6 -16 -52 2 -83 8 -14 27 -51 42 -82 15 -32 34 -58
41 -58 6 0 12 4 12 8 0 15 -39 124 -49 136 -5 6 -12 26 -16 43 -7 36 -14 43
-32 36z"/>
<path d="M4730 3940 c0 -5 5 -10 11 -10 5 0 7 5 4 10 -3 6 -8 10 -11 10 -2 0
-4 -4 -4 -10z"/>
<path d="M4760 3912 c0 -11 27 -42 37 -42 3 0 -2 10 -13 23 -10 12 -20 24 -21
26 -2 2 -3 -1 -3 -7z"/>
<path d="M4663 3874 c-3 -8 -1 -20 6 -27 8 -8 11 -4 11 16 0 30 -7 35 -17 11z"/>
<path d="M4707 3728 c-6 -18 13 -60 37 -82 17 -16 18 -18 4 -13 -10 4 -18 2
-18 -3 0 -6 9 -10 20 -10 17 0 19 4 14 28 -4 15 -14 37 -22 50 -13 20 -13 22
2 22 9 0 16 5 16 10 0 15 -48 12 -53 -2z"/>
<path d="M4320 4387 c0 -10 22 -48 38 -65 20 -22 14 -3 -13 36 -14 20 -25 33
-25 29z"/>
<path d="M4403 4224 c0 -23 1 -24 9 -10 7 12 7 21 0 28 -6 6 -9 0 -9 -18z"/>
<path d="M4400 4170 c0 -5 9 -10 20 -10 11 0 20 -4 20 -10 0 -5 -7 -10 -15
-10 -8 0 -15 -4 -15 -10 0 -5 6 -7 14 -4 11 4 13 0 9 -14 -5 -22 12 -62 27
-62 6 0 11 10 11 23 1 20 2 20 6 2 3 -11 9 -24 13 -29 5 -5 7 -23 4 -40 -4
-29 -4 -29 6 -7 8 18 6 35 -7 70 -9 25 -20 48 -24 51 -4 3 -12 18 -18 33 -10
26 -51 40 -51 17z"/>
<path d="M4450 4031 c0 -5 7 -14 15 -21 13 -10 15 -9 15 9 0 12 -6 21 -15 21
-8 0 -15 -4 -15 -9z"/>
<path d="M4420 3549 c0 -5 5 -7 10 -4 6 3 10 8 10 11 0 2 -4 4 -10 4 -5 0 -10
-5 -10 -11z"/>
<path d="M4415 3480 c3 -5 8 -10 11 -10 2 0 4 5 4 10 0 6 -5 10 -11 10 -5 0
-7 -4 -4 -10z"/>
<path d="M4310 2855 c-20 -24 -6 -28 15 -5 10 11 13 20 8 20 -6 0 -16 -7 -23
-15z"/>
<path d="M3773 2543 c9 -2 23 -2 30 0 6 3 -1 5 -18 5 -16 0 -22 -2 -12 -5z"/>
<path d="M5819 4453 c-18 -4 -50 -70 -229 -468 -67 -148 -144 -319 -172 -380
-27 -60 -52 -116 -55 -123 -4 -10 21 -12 118 -10 l124 3 39 103 40 102 238 0
239 0 34 -77 c63 -141 44 -128 178 -131 134 -3 133 -3 93 76 -13 26 -58 122
-99 212 -254 559 -310 676 -324 688 -16 11 -185 16 -224 5z m181 -400 c40 -93
74 -174 77 -180 4 -10 -30 -13 -152 -13 -137 0 -156 2 -151 15 41 109 142 345
147 345 4 0 39 -75 79 -167z"/>
<path d="M6610 3965 l0 -496 113 3 112 3 0 283 c0 155 2 282 5 282 3 0 18 -24
34 -53 16 -28 78 -132 138 -230 116 -187 121 -191 192 -185 37 3 40 6 120 138
44 74 103 173 130 220 81 142 76 152 76 -173 l0 -287 110 0 110 0 0 496 0 495
-97 -3 -98 -3 -118 -190 c-64 -104 -142 -230 -172 -280 -30 -49 -60 -98 -68
-109 -12 -16 -27 4 -161 220 -82 132 -162 262 -179 289 -44 73 -49 75 -154 75
l-93 0 0 -495z"/>
<path d="M7993 4453 c-10 -4 -13 -112 -13 -494 l0 -489 388 2 387 3 0 95 0 95
-270 1 -270 1 -3 106 -3 107 236 0 236 0 -3 93 -3 92 -233 3 -233 2 3 96 3 96
110 2 c61 2 179 4 263 4 l152 2 0 95 0 95 -367 -1 c-203 0 -374 -3 -380 -6z"/>
<path d="M8953 4453 c-10 -4 -13 -112 -13 -494 l0 -489 384 0 385 0 3 96 c2
53 0 98 -3 100 -3 2 -120 3 -260 3 -140 1 -260 1 -266 1 -10 0 -13 28 -13 105
l0 105 229 0 c127 0 231 3 233 8 2 4 2 46 0 95 l-3 87 -230 0 -229 0 0 95 c0
69 3 95 13 95 6 0 125 2 262 3 l250 2 0 95 0 95 -365 2 c-201 1 -371 -1 -377
-4z"/>
<path d="M9898 4454 c-5 -4 -8 -227 -8 -496 l0 -489 118 3 117 3 3 138 3 137
102 0 102 0 100 -140 99 -140 118 0 c64 0 119 4 122 8 2 4 -20 41 -50 82 -72
99 -158 230 -153 233 2 2 27 20 56 40 58 42 108 111 124 171 17 61 6 182 -20
241 -40 91 -124 157 -246 193 -55 16 -573 31 -587 16z m539 -214 c58 -26 83
-69 83 -142 0 -47 -5 -62 -27 -89 -42 -49 -82 -61 -230 -67 l-133 -5 0 162 0
161 133 0 c108 0 140 -4 174 -20z"/>
<path d="M1766 4125 c-9 -26 -7 -32 5 -12 6 10 9 21 6 23 -2 3 -7 -2 -11 -11z"/>
<path d="M1731 4004 c0 -11 3 -14 6 -6 3 7 2 16 -1 19 -3 4 -6 -2 -5 -13z"/>
<path d="M1716 3943 c-16 -41 -36 -246 -34 -352 l1 -116 8 145 c6 133 20 257
35 316 7 28 -1 32 -10 7z"/>
<path d="M1692 3435 c0 -16 2 -22 5 -12 2 9 2 23 0 30 -3 6 -5 -1 -5 -18z"/>
<path d="M1691 3384 c0 -11 3 -14 6 -6 3 7 2 16 -1 19 -3 4 -6 -2 -5 -13z"/>
<path d="M4991 3354 c0 -11 3 -14 6 -6 3 7 2 16 -1 19 -3 4 -6 -2 -5 -13z"/>
<path d="M1701 3337 c-4 -110 87 -379 197 -582 90 -167 319 -418 483 -532 147
-102 451 -244 492 -230 6 2 -6 10 -28 17 -57 18 -217 91 -285 130 -19 11 -43
30 -54 42 -10 13 -22 24 -27 24 -5 1 -13 2 -17 3 -5 0 -19 10 -31 20 l-22 19
36 -2 c19 -2 39 -7 43 -11 4 -4 -3 -4 -15 -1 -14 5 -23 3 -23 -3 0 -6 5 -11
10 -11 18 0 25 -2 41 -10 8 -5 21 -4 30 2 11 8 11 9 -3 4 -20 -6 -34 10 -16
17 9 4 7 6 -3 6 -9 1 -22 8 -29 16 -7 9 -22 13 -34 10 -12 -3 -15 -2 -8 1 10
5 10 9 1 20 -14 18 -43 19 -33 2 5 -9 2 -9 -9 1 -18 15 -23 26 -7 16 6 -3 10
-2 10 3 0 11 -51 47 -62 44 -5 -1 -8 3 -8 8 0 6 -4 10 -9 10 -6 0 -8 -9 -6
-19 3 -14 -1 -18 -12 -14 -12 5 -12 7 -1 14 9 6 6 9 -12 10 -17 1 -19 3 -7 6
21 6 22 26 2 43 -9 8 -15 8 -15 2 0 -6 6 -12 13 -15 6 -2 8 -8 4 -13 -5 -5
-19 3 -32 18 -13 15 -26 25 -29 22 -3 -2 -2 2 4 8 16 20 11 29 -9 18 -14 -7
-22 -7 -26 0 -4 6 -1 9 7 8 22 -5 14 26 -10 38 -13 6 -24 15 -25 20 -1 5 -7 8
-14 8 -6 -1 -9 5 -6 15 5 13 2 12 -17 -4 -13 -11 -20 -14 -16 -8 4 7 -2 22
-13 34 -18 19 -22 20 -37 8 -16 -13 -16 -12 -5 9 12 22 11 23 -9 12 -14 -7
-20 -8 -16 -1 4 5 -3 15 -14 21 -11 6 -18 15 -15 19 3 5 -2 12 -11 15 -10 4
-14 12 -10 23 4 10 4 14 0 11 -7 -7 -34 15 -34 28 0 3 -18 32 -39 64 -54 79
-78 128 -124 255 -39 108 -44 128 -71 270 -8 39 -14 57 -15 42z"/>
<path d="M5548 3217 c-108 -36 -178 -131 -178 -241 0 -37 8 -77 19 -101 23
-51 98 -118 149 -133 52 -16 168 -14 215 2 69 25 77 39 77 132 0 107 -3 114
-51 114 l-39 0 0 -80 c0 -94 -6 -100 -97 -100 -110 0 -173 62 -173 171 0 70
27 115 90 147 58 29 104 28 169 -4 l52 -26 25 23 c13 12 24 28 24 34 0 7 -23
25 -52 40 -60 33 -168 43 -230 22z"/>
<path d="M5951 3222 c-8 -3 -11 -75 -11 -248 l0 -244 170 0 170 0 0 40 0 40
-125 0 -125 0 0 205 c0 113 -3 206 -7 206 -22 4 -62 4 -72 1z"/>
<path d="M6500 3221 c-52 -17 -89 -42 -124 -83 -96 -112 -67 -295 58 -373 46
-28 56 -30 146 -30 90 0 100 2 146 30 30 19 60 49 79 80 28 45 30 56 30 141 0
87 -2 95 -30 135 -45 63 -120 101 -209 105 -39 2 -82 0 -96 -5z m160 -93 c63
-32 93 -92 86 -167 -9 -94 -71 -151 -164 -151 -63 0 -109 23 -144 73 -33 47
-32 139 2 191 47 72 139 94 220 54z"/>
<path d="M6940 2979 l0 -251 168 4 c152 3 170 5 203 25 43 27 59 59 59 120 0
40 -5 50 -37 81 -24 22 -33 37 -25 40 20 6 42 58 42 101 0 55 -37 96 -103 116
-34 10 -93 15 -179 15 l-128 0 0 -251z m277 160 c15 -5 31 -16 35 -22 14 -22
8 -57 -12 -77 -17 -17 -33 -20 -115 -20 l-95 0 0 65 0 65 79 0 c44 0 92 -5
108 -11z m17 -199 c53 -20 60 -96 11 -118 -14 -7 -68 -12 -120 -12 l-95 0 0
70 0 70 89 0 c49 0 101 -4 115 -10z"/>
<path d="M7622 3218 c-16 -20 -212 -463 -212 -480 0 -4 18 -8 41 -8 39 0 41 2
65 55 l25 55 123 0 123 0 24 -52 c24 -52 25 -53 72 -56 60 -4 62 -16 -38 203
-40 88 -87 190 -103 228 -30 66 -31 67 -70 67 -22 0 -44 -6 -50 -12z m92 -196
c20 -46 36 -87 36 -92 0 -6 -38 -10 -85 -10 -47 0 -85 4 -85 9 0 5 11 34 25
64 13 31 31 73 40 93 9 22 19 34 24 28 5 -5 25 -46 45 -92z"/>
<path d="M8005 3222 c-3 -3 -5 -115 -5 -249 l0 -243 175 0 175 0 0 40 0 40
-130 0 -130 0 0 205 c0 188 -1 205 -17 206 -10 0 -28 2 -41 3 -12 2 -24 0 -27
-2z"/>
<path d="M8624 3221 c-2 -2 -4 -114 -4 -248 l0 -243 45 0 45 0 0 244 0 244
-41 4 c-22 2 -42 2 -45 -1z"/>
<path d="M8840 2980 l0 -250 45 0 45 0 2 159 3 159 107 -131 c160 -197 150
-187 192 -187 l36 0 0 245 c0 135 -3 245 -7 246 -5 1 -24 2 -43 2 l-35 2 -3
-157 c-1 -87 -6 -158 -10 -157 -4 0 -53 57 -110 128 -147 182 -156 191 -191
191 l-31 0 0 -250z"/>
<path d="M9550 3221 c-116 -36 -179 -121 -180 -244 0 -82 26 -143 81 -191 47
-40 97 -56 176 -56 70 0 115 13 161 47 39 29 39 35 6 68 l-26 26 -28 -26 c-34
-33 -92 -47 -144 -35 -78 17 -125 71 -132 151 -7 71 23 134 81 167 56 32 138
27 190 -12 l36 -28 25 23 c31 29 30 41 -6 68 -62 45 -168 64 -240 42z"/>
<path d="M4931 3084 c0 -11 3 -14 6 -6 3 7 2 16 -1 19 -3 4 -6 -2 -5 -13z"/>
<path d="M4905 3008 c-8 -30 -22 -63 -30 -74 -8 -10 -15 -26 -15 -35 0 -12
-84 -166 -120 -219 -6 -8 -19 -28 -30 -45 -23 -36 -20 -33 -95 -119 -51 -59
-105 -110 -247 -232 -26 -22 -58 -24 -58 -2 0 5 -5 6 -11 2 -8 -4 -4 -11 10
-19 21 -10 21 -13 6 -25 -13 -11 -21 -11 -36 -2 -27 17 -37 15 -13 -3 16 -13
17 -16 4 -25 -8 -5 -19 -10 -25 -10 -5 0 -4 4 4 9 8 5 9 11 3 15 -6 3 -17 -1
-26 -9 -8 -8 -17 -11 -20 -6 -3 5 2 12 11 15 11 5 13 10 6 17 -12 12 -39 1
-81 -32 -15 -11 -18 -19 -10 -21 10 -4 10 -8 0 -21 -11 -13 -10 -16 5 -19 15
-3 14 -6 -8 -18 -88 -50 -198 -100 -287 -130 -57 -19 -99 -36 -94 -38 23 -7
247 76 362 134 285 146 516 364 688 654 63 106 142 294 129 307 -3 3 -13 -19
-22 -49z m-718 -792 c0 -8 -6 -12 -15 -9 -11 5 -11 7 0 14 7 5 13 9 14 9 0 0
1 -6 1 -14z"/>
<path d="M9922 2840 c-12 -5 -27 -21 -32 -36 -21 -54 35 -93 91 -64 28 15 26
74 -3 94 -25 18 -25 18 -56 6z"/>
<path d="M10165 2798 c-16 -29 -31 -56 -33 -60 -2 -5 143 -8 322 -8 l326 0 0
60 0 60 -292 0 -293 0 -30 -52z"/>
<path d="M2100 2581 c0 -5 7 -12 16 -15 24 -9 28 -7 14 9 -14 17 -30 20 -30 6z"/>
<path d="M5367 2473 c-10 -18 -1 -127 11 -131 7 -2 12 5 12 17 0 15 6 21 23
21 27 0 57 28 57 53 0 26 -29 47 -65 47 -19 0 -36 -3 -38 -7z m81 -37 c4 -20
-13 -36 -40 -36 -13 0 -18 8 -18 31 0 27 3 30 27 27 18 -2 29 -10 31 -22z"/>
<path d="M5497 2473 c-4 -6 -6 -35 -6 -67 1 -57 16 -85 26 -47 7 27 29 27 45
1 7 -11 19 -20 26 -20 10 0 10 5 -2 21 -13 19 -13 24 0 36 16 16 18 41 5 61
-10 16 -86 28 -94 15z m72 -27 c18 -22 2 -46 -30 -46 -24 0 -29 4 -29 23 0 13
3 27 7 30 11 12 40 8 52 -7z"/>
<path d="M5630 2410 l0 -70 45 0 c25 0 45 5 45 10 0 6 -16 10 -35 10 -28 0
-35 4 -35 20 0 15 7 20 25 20 14 0 25 5 25 10 0 6 -11 10 -25 10 -18 0 -25 5
-25 20 0 16 7 20 36 20 21 0 33 4 29 10 -3 6 -24 10 -46 10 l-39 0 0 -70z"/>
<path d="M5744 2466 c-3 -8 -4 -38 -2 -67 5 -66 28 -80 28 -17 l0 43 21 -32
c26 -41 33 -41 49 -3 15 36 22 33 24 -10 3 -55 21 -31 22 30 2 71 -9 84 -34
40 -36 -66 -36 -66 -63 -16 -25 48 -36 56 -45 32z"/>
<path d="M5920 2410 c0 -40 4 -70 10 -70 6 0 10 30 10 70 0 40 -4 70 -10 70
-6 0 -10 -30 -10 -70z"/>
<path d="M5980 2424 c0 -66 11 -84 50 -84 14 0 31 5 38 12 13 13 17 132 4 124
-5 -3 -9 -26 -10 -52 0 -51 -11 -68 -38 -62 -15 2 -20 14 -22 53 -5 74 -22 81
-22 9z"/>
<path d="M6120 2410 c0 -76 17 -97 22 -27 l3 42 20 -32 c10 -18 22 -33 26 -33
4 0 12 14 19 30 12 30 32 42 29 18 -4 -32 2 -68 11 -68 6 0 10 30 10 70 0 41
-4 70 -10 70 -6 0 -20 -20 -32 -45 -12 -25 -24 -45 -27 -45 -4 0 -14 18 -25
40 -32 66 -46 60 -46 -20z"/>
<path d="M6330 2470 c0 -5 9 -10 20 -10 18 0 20 -7 20 -60 0 -33 4 -60 10 -60
6 0 10 25 10 56 0 47 3 57 20 61 37 10 20 23 -30 23 -27 0 -50 -4 -50 -10z"/>
<path d="M6457 2473 c-4 -7 -2 -99 2 -125 2 -17 21 -6 21 12 0 13 7 20 20 20
10 0 24 -9 30 -20 16 -29 32 -25 18 5 -9 19 -9 28 0 37 17 17 15 44 -4 62 -16
16 -79 22 -87 9z m67 -19 c35 -13 12 -54 -30 -54 -9 0 -14 11 -14 30 0 30 11
37 44 24z"/>
<path d="M6599 2415 c-29 -64 -32 -99 -5 -62 17 22 86 24 86 2 0 -8 5 -15 10
-15 6 0 10 4 10 8 0 20 -49 127 -59 130 -6 2 -25 -26 -42 -63z m61 -17 c0 -5
-11 -8 -24 -8 -24 0 -24 2 -14 31 l11 32 13 -24 c7 -13 13 -27 14 -31z"/>
<path d="M6730 2410 l0 -70 33 0 c51 0 77 24 77 70 0 46 -26 70 -77 70 l-33 0
0 -70z m80 30 c24 -24 24 -29 4 -58 -8 -12 -26 -22 -40 -22 -22 0 -24 4 -24
50 0 43 3 50 20 50 11 0 29 -9 40 -20z"/>
<path d="M6879 2468 c0 -7 -2 -24 -4 -38 -6 -37 5 -91 16 -84 12 7 9 123 -3
130 -4 3 -8 -1 -9 -8z"/>
<path d="M6936 2473 c-10 -10 -7 -121 4 -128 6 -4 10 12 10 42 l0 48 45 -50
44 -50 1 73 c0 46 -4 71 -10 67 -5 -3 -10 -25 -10 -47 l0 -41 -29 41 c-33 44
-45 55 -55 45z"/>
<path d="M7090 2460 c-43 -43 -11 -120 50 -120 33 0 56 30 44 58 -6 14 -8 13
-13 -8 -8 -30 -42 -38 -65 -15 -36 37 -5 91 45 80 34 -8 40 10 7 19 -36 9 -47
7 -68 -14z"/>
<path d="M7402 2464 c-16 -11 -22 -25 -22 -53 0 -49 26 -74 72 -69 29 3 33 7
36 36 2 18 -1 32 -7 32 -6 0 -11 -11 -11 -25 0 -19 -5 -25 -23 -25 -30 0 -47
18 -47 51 0 36 22 52 60 44 35 -8 42 9 8 19 -34 9 -41 8 -66 -10z"/>
<path d="M7528 2474 c-5 -4 -8 -36 -8 -71 l0 -63 39 0 c22 0 43 5 46 10 4 6
-8 10 -29 10 l-35 0 -3 61 c-2 33 -6 57 -10 53z"/>
<path d="M7639 2459 c-29 -29 -23 -88 12 -108 53 -29 110 14 95 73 -14 55 -68
74 -107 35z m75 -15 c32 -31 14 -84 -29 -84 -27 0 -45 18 -45 46 0 25 24 54
45 54 7 0 21 -7 29 -16z"/>
<path d="M7787 2473 c-4 -3 -7 -35 -7 -70 l0 -63 44 0 c51 0 71 18 60 52 -4
13 -7 31 -5 41 1 10 -3 25 -9 33 -13 14 -71 20 -83 7z m71 -35 c3 -14 -3 -18
-27 -18 -25 0 -31 4 -31 21 0 16 5 20 27 17 17 -2 29 -10 31 -20z m7 -58 c0
-10 -12 -16 -32 -18 -28 -3 -33 0 -33 18 0 18 5 21 33 18 20 -2 32 -8 32 -18z"/>
<path d="M7930 2415 c-29 -65 -32 -99 -6 -62 17 23 72 23 85 0 21 -39 22 0 0
52 -36 87 -44 88 -79 10z m43 -23 c-22 -5 -26 4 -18 35 l8 28 12 -30 c11 -26
11 -30 -2 -33z"/>
<path d="M8057 2469 c-5 -9 -7 -41 -5 -70 l3 -54 43 -3 c49 -4 58 15 10 20
-33 3 -33 4 -38 63 -4 38 -9 54 -13 44z"/>
<path d="M8210 2410 c0 -40 4 -70 10 -70 6 0 10 9 10 20 0 28 34 26 53 -2 8
-13 18 -20 22 -16 4 4 2 15 -6 24 -11 13 -11 18 -1 21 6 3 12 20 12 38 0 39
-20 55 -69 55 l-31 0 0 -70z m78 38 c17 -17 -4 -48 -33 -48 -21 0 -25 5 -25
30 0 25 4 30 23 30 13 0 28 -5 35 -12z"/>
<path d="M8347 2473 c-4 -3 -7 -35 -7 -70 l0 -63 52 0 c55 0 57 16 3 22 -39 4
-41 32 -2 36 15 2 27 7 27 12 0 5 -12 10 -27 12 -40 4 -36 32 5 36 17 2 32 7
32 13 0 10 -73 13 -83 2z"/>
<path d="M8477 2413 c-26 -67 -27 -94 -3 -60 17 22 65 22 82 0 7 -10 15 -15
19 -12 9 10 -47 139 -60 139 -6 0 -23 -30 -38 -67z m41 -21 c-27 -5 -32 2 -18
29 l13 22 13 -24 c11 -22 11 -24 -8 -27z"/>
<path d="M8615 2455 c-29 -28 -31 -45 -9 -86 13 -26 20 -30 51 -27 20 2 38 9
41 17 3 9 -2 11 -17 6 -51 -16 -84 28 -55 73 13 20 21 23 52 18 35 -6 36 -5
18 9 -28 22 -53 19 -81 -10z"/>
<path d="M8730 2410 c0 -40 4 -70 10 -70 6 0 10 14 10 30 0 28 3 30 35 30 32
0 35 -2 35 -30 0 -16 5 -30 10 -30 6 0 10 30 10 70 0 68 -15 98 -22 43 -3 -24
-8 -28 -33 -28 -25 0 -30 4 -33 28 -7 55 -22 25 -22 -43z"/>
<path d="M9030 2471 c0 -5 9 -11 20 -14 17 -4 20 -14 20 -61 0 -31 5 -56 10
-56 6 0 10 25 10 56 0 47 3 57 20 61 11 3 17 9 14 14 -7 12 -94 12 -94 0z"/>
<path d="M9151 2428 c3 -67 9 -89 21 -82 5 3 7 12 4 20 -9 22 32 17 46 -6 7
-11 19 -20 26 -20 10 0 10 5 2 20 -7 14 -8 26 0 39 14 28 13 38 -10 61 -12 12
-33 20 -55 20 l-36 0 2 -52z m79 17 c10 -12 10 -18 0 -30 -27 -32 -71 -8 -56
30 3 8 14 15 24 15 11 0 25 -7 32 -15z"/>
<path d="M9288 2474 c-14 -13 -8 -89 8 -112 17 -24 62 -30 82 -10 7 7 12 39
12 72 0 72 -17 65 -22 -9 -2 -35 -8 -51 -18 -52 -29 -5 -44 16 -50 67 -3 29
-8 48 -12 44z"/>
<path d="M9436 2467 c-27 -20 -16 -50 27 -70 46 -21 39 -42 -10 -34 -24 4 -33
2 -30 -6 2 -7 19 -13 37 -15 63 -6 77 60 16 76 -43 11 -41 37 2 35 21 -1 32 3
29 10 -5 18 -49 20 -71 4z"/>
<path d="M9530 2470 c0 -5 9 -10 20 -10 18 0 20 -7 20 -60 0 -33 4 -60 10 -60
6 0 10 25 10 56 0 47 3 57 20 61 37 10 20 23 -30 23 -27 0 -50 -4 -50 -10z"/>
<path d="M9650 2410 l0 -70 45 0 c25 0 45 5 45 10 0 6 -16 10 -35 10 -28 0
-35 4 -35 20 0 16 7 20 30 20 38 0 40 18 3 22 -40 4 -36 32 5 36 48 5 39 22
-13 22 l-45 0 0 -70z"/>
<path d="M9777 2473 c-4 -3 -7 -35 -7 -70 l0 -63 38 0 c55 0 82 23 82 70 0 29
-6 43 -22 54 -23 16 -79 22 -91 9z m74 -23 c22 -12 26 -59 7 -78 -7 -7 -25
-12 -40 -12 -27 0 -28 2 -28 50 0 44 3 50 21 50 11 0 29 -5 40 -10z"/>
<path d="M9991 2462 c-25 -19 -31 -73 -12 -96 20 -23 89 -56 106 -50 8 4 15
13 15 21 0 12 -3 13 -15 3 -8 -6 -19 -8 -26 -4 -8 5 -5 12 11 24 32 24 32 76
1 102 -29 23 -53 23 -80 0z m68 -16 c17 -20 10 -67 -11 -80 -25 -15 -52 4 -56
40 -6 43 41 71 67 40z"/>
<path d="M10120 2427 c0 -62 16 -87 55 -87 34 0 55 36 55 92 0 64 -18 61 -22
-3 -2 -36 -8 -55 -20 -63 -26 -16 -41 5 -42 60 -1 71 -26 71 -26 1z"/>
<path d="M10273 2410 c-23 -50 -28 -70 -18 -70 8 0 16 9 20 19 7 25 61 20 80
-6 17 -23 30 -11 16 14 -5 10 -19 39 -30 66 -11 26 -24 47 -29 47 -4 0 -22
-31 -39 -70z m56 -7 c1 -7 -8 -13 -18 -13 -18 0 -19 3 -9 32 10 28 12 30 19
12 4 -10 8 -25 8 -31z"/>
<path d="M10400 2410 l0 -70 40 0 c22 0 40 5 40 10 0 6 -13 10 -30 10 l-30 0
0 60 c0 33 -4 60 -10 60 -6 0 -10 -30 -10 -70z"/>
<path d="M10510 2411 c0 -41 4 -71 10 -71 6 0 10 28 10 64 0 36 -4 68 -10 71
-6 4 -10 -20 -10 -64z"/>
<path d="M10550 2470 c0 -5 9 -10 20 -10 18 0 20 -7 20 -54 0 -30 5 -58 10
-61 6 -4 10 15 10 50 0 48 3 58 20 62 37 10 20 23 -30 23 -27 0 -50 -4 -50
-10z"/>
<path d="M10668 2474 c-4 -3 4 -23 17 -43 14 -19 25 -48 25 -63 0 -16 5 -28
10 -28 6 0 10 10 10 23 0 12 12 42 25 66 25 42 26 73 2 39 -7 -9 -18 -25 -25
-35 -9 -13 -14 -14 -18 -6 -11 25 -39 54 -46 47z"/>
<path d="M7262 2398 c2 -12 10 -23 18 -23 22 0 19 39 -3 43 -15 3 -18 -1 -15
-20z"/>
<path d="M8923 2404 c-8 -21 13 -42 28 -27 13 13 5 43 -11 43 -6 0 -13 -7 -17
-16z"/>
<path d="M4374 2372 c2 -4 -11 -18 -30 -31 -19 -13 -32 -26 -30 -28 6 -6 76
49 76 60 0 4 -5 7 -11 7 -5 0 -8 -4 -5 -8z"/>
<path d="M4290 2250 c0 -5 5 -10 10 -10 6 0 10 5 10 10 0 6 -4 10 -10 10 -5 0
-10 -4 -10 -10z"/>
<path d="M2930 1970 c14 -4 32 -8 40 -9 13 -1 13 0 0 9 -8 5 -26 9 -40 9 l-25
-1 25 -8z"/>
<path d="M2998 1953 c7 -3 16 -2 19 1 4 3 -2 6 -13 5 -11 0 -14 -3 -6 -6z"/>
<path d="M3048 1943 c6 -2 18 -2 25 0 6 3 1 5 -13 5 -14 0 -19 -2 -12 -5z"/>
<path d="M3318 1913 c17 -2 47 -2 65 0 17 2 3 4 -33 4 -36 0 -50 -2 -32 -4z"/>
</g>
</svg>
